<svg width="286" height="290" viewBox="0 0 286 290" fill="none" xmlns="http://www.w3.org/2000/svg">
<path d="M144.899 194.02C147.964 194.02 160.063 194.497 170.065 204.358C179.906 214.06 181.035 226.624 181.68 233.145C181.841 234.736 183.777 258.592 168.129 276.405C164.58 280.381 158.45 287.538 148.771 288.811C142.479 289.606 137.478 287.697 135.22 286.743C117.474 279.427 111.021 257.32 110.053 253.821C108.44 248.095 102.31 225.511 115.861 208.493C127.154 194.338 143.77 194.02 144.899 194.02Z" fill="white" stroke="white" stroke-miterlimit="10"/>
<path d="M79.2408 196.088C99.5673 183.046 98.1154 173.345 114.086 165.233C126.508 158.871 138.607 159.03 145.06 159.03C153.449 159.19 163.612 159.19 174.098 165.233C184.906 171.436 191.359 180.979 208.943 196.088C209.911 197.042 211.847 198.633 214.751 200.223C216.041 200.859 224.43 205.471 234.109 204.358C249.758 202.609 258.469 187.181 259.276 185.75C267.18 171.277 262.825 155.691 259.276 142.49C257.985 137.719 252.016 117.202 234.109 101.297C230.238 97.9574 225.721 93.9813 218.623 90.9595C206.362 86.0291 195.231 87.6196 187.649 88.8919C173.936 91.1186 174.582 94.6175 160.547 97.1622C145.705 99.7069 134.09 97.6393 131.509 97.1622C120.216 94.9356 120.539 92.2319 108.279 88.8919C99.5673 86.6653 85.371 82.8482 71.4974 88.8919C64.7219 91.9138 61.0115 95.8898 54.0747 103.365C32.9416 126.108 27.9406 150.124 26.9727 154.895C24.5529 167.142 25.8434 173.822 26.9727 177.639C27.4567 179.229 29.8765 187.022 36.652 194.179C38.9105 196.406 45.0407 202.927 54.0747 204.517C57.1398 204.835 64.5606 205.471 79.2408 196.088Z" fill="white" stroke="white" stroke-miterlimit="10"/>
<path d="M14.551 87.9376C22.9397 86.029 29.0699 78.713 30.0379 77.5997C36.0067 70.4427 41.8143 65.9894 53.2681 56.9239C58.2691 53.1068 67.3031 45.9499 80.3701 40.3833C93.4372 34.8168 98.5995 35.93 99.7287 32.113C102.149 24.4788 85.3711 8.5744 66.8191 3.32593C62.9474 2.21262 39.8785 -4.46723 20.3586 11.5963C20.3586 11.5963 1.32264 27.1826 1 58.9915C1 65.1942 2.12925 70.1246 2.93585 73.4645C4.38774 79.6673 6.16229 86.3471 10.6793 87.9376C11.9699 88.2557 13.0991 88.2557 14.551 87.9376Z" fill="white" stroke="white" stroke-miterlimit="10"/>
<path d="M189.262 34.6577C194.747 41.8147 203.62 44.2004 204.91 44.5185C213.622 46.9041 220.075 50.2441 232.819 56.9239C238.304 59.7867 248.467 65.1942 258.953 74.896C269.6 84.7567 271.052 90.0052 274.762 89.369C282.183 88.0966 287.668 64.8762 283.635 44.9956C282.829 40.8605 277.666 15.8905 255.404 4.9164C255.404 4.9164 233.625 -5.8986 207.007 8.4154C201.845 11.2782 198.296 14.6181 195.876 16.8447C191.359 21.1389 186.52 25.9103 187.488 30.8407C187.649 32.4311 188.294 33.5444 189.262 34.6577Z" fill="white" stroke="white" stroke-miterlimit="10"/>
<path d="M98.5995 105.432V121.814H94.7278V125.949H90.8561V121.814H86.9844V105.432H98.5995Z" fill="#19191B" stroke="#19191B" stroke-miterlimit="10"/>
<path d="M86.9844 154.895V138.355H90.8561V134.219H94.7278V138.355H98.5995V154.895H86.9844Z" fill="#19191B" stroke="#19191B" stroke-miterlimit="10"/>
<path d="M116.022 136.446L100.535 136.287V132.152H96.6636V128.017H100.535V123.882L116.022 124.041V136.446Z" fill="#19191B" stroke="#19191B" stroke-miterlimit="10"/>
<path d="M69.5618 123.882H85.0486V128.017H88.9203V132.152H85.0486V136.287H69.5618V123.882Z" fill="#19191B" stroke="#19191B" stroke-miterlimit="10"/>
<path d="M89.8881 122.927H86.0164V127.063H89.8881V122.927Z" fill="white"/>
<path d="M89.8881 133.265H86.0164V137.4H89.8881V133.265Z" fill="white"/>
<path d="M99.5673 122.927H95.6956V127.063H99.5673V122.927Z" fill="white"/>
<path d="M99.5673 133.265H95.6956V137.4H99.5673V133.265Z" fill="white"/>
<path d="M95.6957 127.062H89.8882V133.265H95.6957V127.062Z" fill="white"/>
<path d="M139.736 133.265H132.961C131.67 133.265 130.541 132.152 130.541 130.88V129.448C130.541 128.176 131.67 127.062 132.961 127.062H139.736C141.027 127.062 142.156 128.176 142.156 129.448V130.88C142.156 132.152 141.027 133.265 139.736 133.265Z" fill="#19191B"/>
<path d="M156.998 133.265H150.222C148.932 133.265 147.802 132.152 147.802 130.88V129.448C147.802 128.176 148.932 127.062 150.222 127.062H156.998C158.288 127.062 159.418 128.176 159.418 129.448V130.88C159.418 132.152 158.45 133.265 156.998 133.265Z" fill="#19191B"/>
<path d="M196.199 122.927C200.476 122.927 203.942 119.225 203.942 114.657C203.942 110.089 200.476 106.387 196.199 106.387C191.922 106.387 188.456 110.089 188.456 114.657C188.456 119.225 191.922 122.927 196.199 122.927Z" fill="#19191B"/>
<path d="M182.648 137.4C186.925 137.4 190.391 133.698 190.391 129.13C190.391 124.563 186.925 120.86 182.648 120.86C178.371 120.86 174.905 124.563 174.905 129.13C174.905 133.698 178.371 137.4 182.648 137.4Z" fill="#19191B"/>
<path d="M211.686 137.4C215.962 137.4 219.429 133.698 219.429 129.13C219.429 124.563 215.962 120.86 211.686 120.86C207.409 120.86 203.942 124.563 203.942 129.13C203.942 133.698 207.409 137.4 211.686 137.4Z" fill="#19191B"/>
<path d="M196.199 151.714C200.476 151.714 203.942 148.012 203.942 143.444C203.942 138.876 200.476 135.174 196.199 135.174C191.922 135.174 188.456 138.876 188.456 143.444C188.456 148.012 191.922 151.714 196.199 151.714Z" fill="#19191B"/>
<path d="M135.381 214.537C138.285 214.06 140.543 214.378 143.124 214.537C158.611 215.968 159.095 215.332 160.547 216.604C165.225 220.581 165.387 230.441 162.483 237.28C158.772 245.71 149.738 251.276 141.188 249.686C133.606 248.254 129.251 241.733 127.637 239.348C126.508 237.598 124.25 234.099 123.766 229.01C123.443 226.465 123.12 222.012 125.701 218.672C127.96 215.65 131.67 215.173 135.381 214.537Z" fill="#19191B" stroke="white" stroke-miterlimit="10"/>
</svg>
